<svg width="249" height="49" viewBox="0 0 249 49" fill="none" xmlns="http://www.w3.org/2000/svg">
<rect width="4.00946" height="17.7512" transform="matrix(0.999987 -0.00516318 0.0050132 0.999987 24.1275 22.5898)" fill="#3497F9"/>
<rect width="4.00946" height="11.1461" transform="matrix(0.999987 -0.00516313 0.00501324 0.999987 24.0399 8.14453)" fill="#3497F9"/>
<path d="M35.1752 48.2845L23.7482 48.3435C19.489 48.3655 16.0048 45.1735 15.985 41.2251L15.9476 33.7662L1.47644 33.841C0.755204 33.8447 0.165633 33.3042 0.162283 32.636L0.109199 22.0472C0.0894201 18.102 3.54195 14.8742 7.8007 14.8522L15.8526 14.8107L15.7854 1.39916C15.7841 1.14947 15.8654 0.915653 16.0063 0.719896C16.2393 0.395778 16.6352 0.182714 17.0869 0.180382L28.5143 0.12138C32.7766 0.0993729 36.2574 3.29457 36.2772 7.24298L36.3146 14.705L50.7894 14.6303C51.5103 14.6265 52.1001 15.1638 52.1035 15.8352L52.1565 26.4176C52.1763 30.366 48.7236 33.597 44.4617 33.619L36.4096 33.6606L33.7939 33.6741L33.8438 43.6148L36.4208 35.8989L36.4768 47.066C36.4802 47.7374 35.8962 48.2808 35.1752 48.2845ZM24.8712 23.8217C22.0516 23.8363 20.1587 25.662 20.1717 28.2709L20.1892 31.7621L20.852 32.1043C21.2113 32.1025 21.8916 31.8784 22.1308 32.0977C25.5836 32.3937 21.4914 32.101 18.2535 31.7721C18.4409 31.9789 21.3766 31.0206 21.3781 31.3147L24.5982 32.085C24.6113 34.697 25.0716 33.2673 27.8916 33.2527L30.5014 33.6911L33.7939 33.6741L24.9208 33.7199C23.599 33.7267 22.3714 33.327 21.3847 32.6479C20.9311 32.3401 20.5285 31.9714 20.1882 31.5543C19.4416 30.6437 18.9945 29.5079 18.9883 28.277C18.9737 25.358 21.4397 22.9538 24.5516 22.7843C24.6993 19.9028 27.2728 17.5908 30.4207 17.5745C33.6783 17.5577 36.3411 19.9994 36.3562 23.0175L36.3677 25.2928L33.7772 30.3427L33.7818 31.2507L36.3975 31.2372L35.6181 21.3658C38.4408 21.3512 38.7629 33.4393 38.7498 30.8272L32.2962 19.0135L35.0191 17.1352C34.2978 17.1389 33.7083 16.5984 33.705 15.9302L33.6615 7.25649C33.6484 4.64446 37.2437 18.988 34.4278 19.0025L31.6568 19.0168L25.6654 21.9153C25.6688 22.5835 27.8609 28.6323 20.1621 22.0379L24.8712 23.8217ZM24.8781 25.1997C23.0662 25.209 21.5956 26.585 21.604 28.2635C21.6124 29.9451 23.0968 31.3059 24.9087 31.2965L33.7818 31.2507L33.7406 23.031C33.7321 21.3525 32.2481 19.9886 30.4328 19.9979C28.6209 20.0073 27.1503 21.3865 27.1587 23.0649C27.16 23.3175 27.1926 23.5667 27.2594 23.8094C27.3754 24.2212 27.2464 24.6567 26.9197 24.9621C26.6741 25.1923 26.3434 25.319 26.0028 25.3208C25.8965 25.3213 25.7888 25.3097 25.6823 25.285C25.4197 25.2256 25.1504 25.1982 24.8781 25.1997Z" fill="#3497F9"/>
<path d="M64.86 34L73.68 14.4H77.264L86.112 34H82.304L74.716 16.332H76.172L68.612 34H64.86ZM68.92 29.464L69.9 26.608H80.484L81.464 29.464H68.92ZM88.6047 34V14.4H97.1727C99.3007 14.4 101.167 14.8107 102.773 15.632C104.378 16.4533 105.629 17.592 106.525 19.048C107.421 20.504 107.869 22.2213 107.869 24.2C107.869 26.16 107.421 27.8773 106.525 29.352C105.629 30.808 104.378 31.9467 102.773 32.768C101.167 33.5893 99.3007 34 97.1727 34H88.6047ZM92.2447 30.92H97.0047C98.4793 30.92 99.7487 30.64 100.813 30.08C101.895 29.52 102.726 28.736 103.305 27.728C103.902 26.72 104.201 25.544 104.201 24.2C104.201 22.8373 103.902 21.6613 103.305 20.672C102.726 19.664 101.895 18.88 100.813 18.32C99.7487 17.76 98.4793 17.48 97.0047 17.48H92.2447V30.92ZM116.021 34.196C114.771 34.196 113.567 34.0373 112.409 33.72C111.271 33.384 110.365 32.9827 109.693 32.516L111.037 29.856C111.709 30.2853 112.512 30.64 113.445 30.92C114.379 31.2 115.312 31.34 116.245 31.34C117.347 31.34 118.14 31.1907 118.625 30.892C119.129 30.5933 119.381 30.192 119.381 29.688C119.381 29.2773 119.213 28.9693 118.877 28.764C118.541 28.54 118.103 28.372 117.561 28.26C117.02 28.148 116.413 28.0453 115.741 27.952C115.088 27.8587 114.425 27.7373 113.753 27.588C113.1 27.42 112.503 27.1867 111.961 26.888C111.42 26.5707 110.981 26.1507 110.645 25.628C110.309 25.1053 110.141 24.4147 110.141 23.556C110.141 22.604 110.412 21.7827 110.953 21.092C111.495 20.3827 112.251 19.8413 113.221 19.468C114.211 19.076 115.377 18.88 116.721 18.88C117.729 18.88 118.747 18.992 119.773 19.216C120.8 19.44 121.649 19.7573 122.321 20.168L120.977 22.828C120.268 22.3987 119.549 22.1093 118.821 21.96C118.112 21.792 117.403 21.708 116.693 21.708C115.629 21.708 114.836 21.8667 114.313 22.184C113.809 22.5013 113.557 22.9027 113.557 23.388C113.557 23.836 113.725 24.172 114.061 24.396C114.397 24.62 114.836 24.7973 115.377 24.928C115.919 25.0587 116.516 25.1707 117.169 25.264C117.841 25.3387 118.504 25.46 119.157 25.628C119.811 25.796 120.408 26.0293 120.949 26.328C121.509 26.608 121.957 27.0093 122.293 27.532C122.629 28.0547 122.797 28.736 122.797 29.576C122.797 30.5093 122.517 31.3213 121.957 32.012C121.416 32.7027 120.641 33.244 119.633 33.636C118.625 34.0093 117.421 34.196 116.021 34.196ZM147.662 14.4H151.302V34H147.662V14.4ZM137.526 34H133.886V14.4H137.526V34ZM147.942 25.6H137.218V22.492H147.942V25.6ZM162.938 34.196C161.407 34.196 160.045 33.8693 158.85 33.216C157.655 32.544 156.713 31.6293 156.022 30.472C155.331 29.3147 154.986 27.9987 154.986 26.524C154.986 25.0307 155.331 23.7147 156.022 22.576C156.713 21.4187 157.655 20.5133 158.85 19.86C160.045 19.2067 161.407 18.88 162.938 18.88C164.487 18.88 165.859 19.2067 167.054 19.86C168.267 20.5133 169.21 21.4093 169.882 22.548C170.573 23.6867 170.918 25.012 170.918 26.524C170.918 27.9987 170.573 29.3147 169.882 30.472C169.21 31.6293 168.267 32.544 167.054 33.216C165.859 33.8693 164.487 34.196 162.938 34.196ZM162.938 31.2C163.797 31.2 164.562 31.0133 165.234 30.64C165.906 30.2667 166.429 29.7253 166.802 29.016C167.194 28.3067 167.39 27.476 167.39 26.524C167.39 25.5533 167.194 24.7227 166.802 24.032C166.429 23.3227 165.906 22.7813 165.234 22.408C164.562 22.0347 163.806 21.848 162.966 21.848C162.107 21.848 161.342 22.0347 160.67 22.408C160.017 22.7813 159.494 23.3227 159.102 24.032C158.71 24.7227 158.514 25.5533 158.514 26.524C158.514 27.476 158.71 28.3067 159.102 29.016C159.494 29.7253 160.017 30.2667 160.67 30.64C161.342 31.0133 162.098 31.2 162.938 31.2ZM178.885 34.196C177.634 34.196 176.43 34.0373 175.273 33.72C174.134 33.384 173.229 32.9827 172.557 32.516L173.901 29.856C174.573 30.2853 175.375 30.64 176.309 30.92C177.242 31.2 178.175 31.34 179.109 31.34C180.21 31.34 181.003 31.1907 181.489 30.892C181.993 30.5933 182.245 30.192 182.245 29.688C182.245 29.2773 182.077 28.9693 181.741 28.764C181.405 28.54 180.966 28.372 180.425 28.26C179.883 28.148 179.277 28.0453 178.605 27.952C177.951 27.8587 177.289 27.7373 176.617 27.588C175.963 27.42 175.366 27.1867 174.825 26.888C174.283 26.5707 173.845 26.1507 173.509 25.628C173.173 25.1053 173.005 24.4147 173.005 23.556C173.005 22.604 173.275 21.7827 173.817 21.092C174.358 20.3827 175.114 19.8413 176.085 19.468C177.074 19.076 178.241 18.88 179.585 18.88C180.593 18.88 181.61 18.992 182.637 19.216C183.663 19.44 184.513 19.7573 185.185 20.168L183.841 22.828C183.131 22.3987 182.413 22.1093 181.685 21.96C180.975 21.792 180.266 21.708 179.557 21.708C178.493 21.708 177.699 21.8667 177.177 22.184C176.673 22.5013 176.421 22.9027 176.421 23.388C176.421 23.836 176.589 24.172 176.925 24.396C177.261 24.62 177.699 24.7973 178.241 24.928C178.782 25.0587 179.379 25.1707 180.033 25.264C180.705 25.3387 181.367 25.46 182.021 25.628C182.674 25.796 183.271 26.0293 183.813 26.328C184.373 26.608 184.821 27.0093 185.157 27.532C185.493 28.0547 185.661 28.736 185.661 29.576C185.661 30.5093 185.381 31.3213 184.821 32.012C184.279 32.7027 183.505 33.244 182.497 33.636C181.489 34.0093 180.285 34.196 178.885 34.196ZM196.963 34.196C195.75 34.196 194.639 33.916 193.631 33.356C192.642 32.796 191.848 31.956 191.251 30.836C190.672 29.6973 190.383 28.26 190.383 26.524C190.383 24.7693 190.663 23.332 191.223 22.212C191.802 21.092 192.586 20.2613 193.575 19.72C194.564 19.16 195.694 18.88 196.963 18.88C198.438 18.88 199.735 19.1973 200.855 19.832C201.994 20.4667 202.89 21.3533 203.543 22.492C204.215 23.6307 204.551 24.9747 204.551 26.524C204.551 28.0733 204.215 29.4267 203.543 30.584C202.89 31.7227 201.994 32.6093 200.855 33.244C199.735 33.8787 198.438 34.196 196.963 34.196ZM188.675 39.432V19.048H192.007V22.576L191.895 26.552L192.175 30.528V39.432H188.675ZM196.571 31.2C197.411 31.2 198.158 31.0133 198.811 30.64C199.483 30.2667 200.015 29.7253 200.407 29.016C200.799 28.3067 200.995 27.476 200.995 26.524C200.995 25.5533 200.799 24.7227 200.407 24.032C200.015 23.3227 199.483 22.7813 198.811 22.408C198.158 22.0347 197.411 21.848 196.571 21.848C195.731 21.848 194.975 22.0347 194.303 22.408C193.631 22.7813 193.099 23.3227 192.707 24.032C192.315 24.7227 192.119 25.5533 192.119 26.524C192.119 27.476 192.315 28.3067 192.707 29.016C193.099 29.7253 193.631 30.2667 194.303 30.64C194.975 31.0133 195.731 31.2 196.571 31.2ZM207.87 34V19.048H211.37V34H207.87ZM209.634 16.584C208.981 16.584 208.44 16.3787 208.01 15.968C207.6 15.5573 207.394 15.0627 207.394 14.484C207.394 13.8867 207.6 13.392 208.01 13C208.44 12.5893 208.981 12.384 209.634 12.384C210.288 12.384 210.82 12.58 211.23 12.972C211.66 13.3453 211.874 13.8213 211.874 14.4C211.874 15.016 211.669 15.5387 211.258 15.968C210.848 16.3787 210.306 16.584 209.634 16.584ZM221.592 34.196C219.949 34.196 218.68 33.776 217.784 32.936C216.888 32.0773 216.44 30.8173 216.44 29.156V15.744H219.94V29.072C219.94 29.7813 220.117 30.332 220.472 30.724C220.845 31.116 221.359 31.312 222.012 31.312C222.796 31.312 223.449 31.1067 223.972 30.696L224.952 33.188C224.541 33.524 224.037 33.776 223.44 33.944C222.843 34.112 222.227 34.196 221.592 34.196ZM213.976 21.96V19.16H223.944V21.96H213.976ZM237.043 34V30.976L236.847 30.332V25.04C236.847 24.0133 236.539 23.22 235.923 22.66C235.307 22.0813 234.374 21.792 233.123 21.792C232.283 21.792 231.452 21.9227 230.631 22.184C229.828 22.4453 229.147 22.8093 228.587 23.276L227.215 20.728C228.018 20.112 228.97 19.6547 230.071 19.356C231.191 19.0387 232.348 18.88 233.543 18.88C235.708 18.88 237.379 19.4027 238.555 20.448C239.75 21.4747 240.347 23.0707 240.347 25.236V34H237.043ZM232.339 34.196C231.219 34.196 230.239 34.0093 229.399 33.636C228.559 33.244 227.906 32.712 227.439 32.04C226.991 31.3493 226.767 30.5747 226.767 29.716C226.767 28.876 226.963 28.12 227.355 27.448C227.766 26.776 228.428 26.244 229.343 25.852C230.258 25.46 231.471 25.264 232.983 25.264H237.323V27.588H233.235C232.04 27.588 231.238 27.784 230.827 28.176C230.416 28.5493 230.211 29.016 230.211 29.576C230.211 30.2107 230.463 30.7147 230.967 31.088C231.471 31.4613 232.171 31.648 233.067 31.648C233.926 31.648 234.691 31.452 235.363 31.06C236.054 30.668 236.548 30.0893 236.847 29.324L237.435 31.424C237.099 32.3013 236.492 32.9827 235.615 33.468C234.756 33.9533 233.664 34.196 232.339 34.196ZM244.839 34V13.224H248.339V34H244.839Z" fill="#3497F9"/>
</svg>